# xmcd CD database file
#
# Track frame offsets:
#	150
#	10750
#	21702
#	37170
#	57635
#	73215
#	86465
#	100470
#	112807
#	137807
#	157555
#	178777
#	199850
#	218207
#	251210
#
# Disc length: 3523 seconds
#
# Revision: 2
# Processed by: cddbd v1.5.2PL0 Copyright (c) Steve Scherf et al.
# Submitted via: CDex 1.70beta2
#
DISCID=dc0dc10f
DTITLE=Louis Armstrong - Louis Armstrong Twin Best [CD1]
DYEAR=1992
DGENRE=Jazz
TTITLE0=What A Wonderful World (この素晴らしき世界)
TTITLE1=Hello,Dolly (ハロー・ドーリー！)
TTITLE2=La Vie En Rose (バラ色の人生)
TTITLE3=On The Sunny Side Of The Street (明るい表通りで)
TTITLE4=I Get Ideas
TTITLE5=Takes Two To Atngo (二人のタンゴ)
TTITLE6=Kiss Of Fire
TTITLE7=April In Portugal (ポルトガルの４月)
TTITLE8=Otchi-Tchor-Ni-Ya
TTITLE9=I Can't Give You Anything But Love (捧ぐるは愛のみ)
TTITLE10=Jeepers,Creepers
TTITLE11=Someday (いつの日にか)
TTITLE12=Song Of The Islands (島の歌)
TTITLE13=Basin Street Blues
TTITLE14=Blueberry Hill
EXTD=YEAR: 1992
EXTT0=
EXTT1=
EXTT2=
EXTT3=
EXTT4=
EXTT5=
EXTT6=
EXTT7=
EXTT8=
EXTT9=
EXTT10=
EXTT11=
EXTT12=
EXTT13=
EXTT14=
PLAYORDER=
